<svg xmlns="http://www.w3.org/2000/svg" viewBox="0 0 316.08 312.92"><defs><style>.cls-1{fill:#ff4d43;}</style></defs><title>Fichier 4</title><g id="Calque_2" data-name="Calque 2"><g id="Calque_1-2" data-name="Calque 1"><path class="cls-1" d="M186.69,28a1.07,1.07,0,0,1-.44.81,1.22,1.22,0,0,1-.86.24,1.19,1.19,0,0,1-.68-.28,1.53,1.53,0,0,1-.41-.62L182,20.55l-13-1.19-3.62,7a1.09,1.09,0,0,1-1.14.7,1.14,1.14,0,0,1-.82-.35,1.2,1.2,0,0,1-.24-.79v-.12a1.11,1.11,0,0,1,.07-.35L176.19.69A1.17,1.17,0,0,1,177.46,0a1.13,1.13,0,0,1,.67.28,1.47,1.47,0,0,1,.41.62l8.11,26.58A2.5,2.5,0,0,1,186.69,28ZM170.18,17.09l11.07,1L176.93,4Z"/><path class="cls-1" d="M210,16.14a9,9,0,0,1,.11,6L206.93,33.5a1.1,1.1,0,0,1-.58.73,1.18,1.18,0,0,1-.9.1,1.16,1.16,0,0,1-.73-.56,1.17,1.17,0,0,1-.1-.92l3.15-11.21a6.53,6.53,0,0,0-.11-4.41,4.86,4.86,0,0,0-3.43-2.65,7.15,7.15,0,0,0-6.34,1.28,4.83,4.83,0,0,0-1.71,2.53L193,29.59a1.15,1.15,0,0,1-.56.74A1.2,1.2,0,0,1,190.72,29l4.85-17.26a1.13,1.13,0,0,1,.56-.73,1.2,1.2,0,0,1,1.75,1.38l-.6,2.12A8.56,8.56,0,0,1,201,12.54a8.31,8.31,0,0,1,4.29,0Q208.92,13.58,210,16.14Z"/><path class="cls-1" d="M240.6,18a1.15,1.15,0,0,1-.07.92L228.71,43.37A1.17,1.17,0,0,1,228,44a1.2,1.2,0,0,1-1.48-1.67l1.21-2.52a8.61,8.61,0,0,1-4,1.51,7.81,7.81,0,0,1-4.5-.75,8.64,8.64,0,0,1-3.7-3.32,9.62,9.62,0,0,1-1.39-4.91,12,12,0,0,1,1.27-5.47,11.73,11.73,0,0,1,3.48-4.36,9.6,9.6,0,0,1,4.71-2,8.69,8.69,0,0,1,4.87.82,8.51,8.51,0,0,1,3.41,3,8.08,8.08,0,0,1,1.41,4.08l5.09-10.56a1.15,1.15,0,0,1,.68-.62,1.27,1.27,0,0,1,1.55.75ZM224.25,39.31a7.31,7.31,0,0,0,3.65-1.59,9.84,9.84,0,0,0,2.74-3.5,9.6,9.6,0,0,0,1-4.26,7.46,7.46,0,0,0-1-3.85,6.88,6.88,0,0,0-6.73-3.25,7.49,7.49,0,0,0-3.66,1.59,9.5,9.5,0,0,0-2.7,3.44,9.77,9.77,0,0,0-1,4.3,7.46,7.46,0,0,0,1,3.85,6.95,6.95,0,0,0,6.73,3.27Z"/><path class="cls-1" d="M268.79,50a1.24,1.24,0,0,1-.32.89L256.71,64.55a1.15,1.15,0,0,1-.82.43,1.25,1.25,0,0,1-1.3-1.12,1.18,1.18,0,0,1,.31-.88l1.75-2a8.37,8.37,0,0,1-4.26.35,8.21,8.21,0,0,1-4.11-1.91,8.65,8.65,0,0,1-2.74-4.21,9.59,9.59,0,0,1,0-5.1,12.71,12.71,0,0,1,7.16-8.27,9.47,9.47,0,0,1,5-.66A9,9,0,0,1,264.75,47a7.62,7.62,0,0,1,.28,4.26l1.62-1.88a1.24,1.24,0,0,1,.84-.44,1.09,1.09,0,0,1,.88.29A1.14,1.14,0,0,1,268.79,50Zm-15.32,9.43a7.55,7.55,0,0,0,4-.61A9.88,9.88,0,0,0,261,56.18a9.44,9.44,0,0,0,2-3.82,7.51,7.51,0,0,0,0-4,6.59,6.59,0,0,0-2.12-3.27,6.71,6.71,0,0,0-3.53-1.63,7.35,7.35,0,0,0-3.92.56A9.63,9.63,0,0,0,250,46.67a10.07,10.07,0,0,0-2.14,3.89,7.32,7.32,0,0,0,0,4,7,7,0,0,0,5.69,4.91Z"/><path class="cls-1" d="M284.21,71l-10.78,8a2.87,2.87,0,0,0-1.33,1.67,2.05,2.05,0,0,0,.45,1.51,2.47,2.47,0,0,0,.43.43,2.05,2.05,0,0,1,.42.39.78.78,0,0,1,.12.67,1,1,0,0,1-.41.63,1.1,1.1,0,0,1-1.13,0,2.92,2.92,0,0,1-1.21-1,8.44,8.44,0,0,1-1-1.66,3.14,3.14,0,0,1,0-2,5.27,5.27,0,0,1,2.12-2.52l10.88-8-1.74-2.35a1.19,1.19,0,0,1-.23-.85,1.07,1.07,0,0,1,.45-.75,1,1,0,0,1,.84-.2,1.16,1.16,0,0,1,.75.47l1.73,2.35,3.57-2.64a1.17,1.17,0,0,1,1.68.26,1.14,1.14,0,0,1,.24.89,1.18,1.18,0,0,1-.49.79L286,69.68l2.38,3.22a1.06,1.06,0,0,1,.17.84,1.11,1.11,0,0,1-.44.75,1,1,0,0,1-.82.21,1.13,1.13,0,0,1-.71-.47Z"/><path class="cls-1" d="M298.44,88.85a1,1,0,0,1-.51,1,1.25,1.25,0,0,1-.94.17,1,1,0,0,1-.67-.48,2.72,2.72,0,0,1-.22-.78,3.52,3.52,0,0,0-.38-1,4.8,4.8,0,0,0-2.47-2,8.85,8.85,0,0,0-3.74-.6,7.71,7.71,0,0,0-3.62,1l-8.55,5a1.18,1.18,0,0,1-.91.14,1.23,1.23,0,0,1-.73-.58,1.14,1.14,0,0,1-.13-.91,1.18,1.18,0,0,1,.57-.73l15.49-9a1.16,1.16,0,0,1,.92-.13,1.26,1.26,0,0,1,.86,1.48,1.15,1.15,0,0,1-.57.73l-3,1.77a9.09,9.09,0,0,1,4.66.5,6.92,6.92,0,0,1,3.53,3A3.15,3.15,0,0,1,298.44,88.85Z"/><path class="cls-1" d="M307.17,110.44a1.16,1.16,0,0,1-.68.64L296,115.3a7.89,7.89,0,0,1-6.4.21,9.77,9.77,0,0,1-4.53-11.22,8,8,0,0,1,4.77-4.27l10.46-4.22a1.2,1.2,0,0,1,.93,0,1.19,1.19,0,0,1,.63.67,1.2,1.2,0,0,1,0,.93,1.19,1.19,0,0,1-.67.63l-10.46,4.22a5.9,5.9,0,0,0-3.5,3.05,5.82,5.82,0,0,0,.21,4.53,6,6,0,0,0,3,3.46,5.81,5.81,0,0,0,4.63-.21l10.47-4.21a1.16,1.16,0,0,1,1.56.66A1.18,1.18,0,0,1,307.17,110.44Z"/><path class="cls-1" d="M304.45,138.24a1.22,1.22,0,0,1-.51-.75l-3.23-14.77a9.22,9.22,0,0,0-4,1.87,7.3,7.3,0,0,0-2.33,3.38,8.14,8.14,0,0,0-.16,4.43,7.28,7.28,0,0,0,1.51,3.19,7,7,0,0,0,2.52,1.95,1.42,1.42,0,0,1,.53.74,1,1,0,0,1-.16.78,1,1,0,0,1-.64.46,1.16,1.16,0,0,1-.9-.21,10.08,10.08,0,0,1-3.19-2.6,8.79,8.79,0,0,1-1.85-3.79,10.88,10.88,0,0,1,.13-5.6,9.36,9.36,0,0,1,2.83-4.38,11.09,11.09,0,0,1,5.09-2.46,12.05,12.05,0,0,1,5.89,0,9.48,9.48,0,0,1,4.41,2.58,8.83,8.83,0,0,1,2.25,4.22,9.43,9.43,0,0,1-.14,4.63,8.78,8.78,0,0,1-2.47,4,9.81,9.81,0,0,1-4.71,2.42A1.1,1.1,0,0,1,304.45,138.24ZM307.9,124a7.42,7.42,0,0,0-5-1.5l2.9,13.33.32-.07a6.37,6.37,0,0,0,2.81-1.84,6.47,6.47,0,0,0,1.46-2.88,7.26,7.26,0,0,0,0-3.18A6.72,6.72,0,0,0,307.9,124Z"/><path class="cls-1" d="M315.56,169.56a7.5,7.5,0,0,1-1.21,2.57,2,2,0,0,1-1.58.94,1.28,1.28,0,0,1-.8-.32,1,1,0,0,1-.34-.75,1.29,1.29,0,0,1,.18-.66,3,3,0,0,1,.5-.56,4.28,4.28,0,0,0,.78-1,6.31,6.31,0,0,0,.5-1.57,11.41,11.41,0,0,0,.24-2.09,7.54,7.54,0,0,0-1-4,7.88,7.88,0,0,0-3-2.94,8.84,8.84,0,0,0-4.21-1.16,9.3,9.3,0,0,0-4.35.89,7.51,7.51,0,0,0-4.3,6.73,8.41,8.41,0,0,0,.18,2.3,8.31,8.31,0,0,0,.63,1.72,7.29,7.29,0,0,0,.7,1,4.08,4.08,0,0,1,.4.57,1.06,1.06,0,0,1,.13.52,1,1,0,0,1-.32.75,1.07,1.07,0,0,1-.79.26,2.05,2.05,0,0,1-1.43-1,8.1,8.1,0,0,1-1.27-2.67,11.4,11.4,0,0,1-.46-3.73,9.71,9.71,0,0,1,1.52-5.16,9.33,9.33,0,0,1,3.91-3.44,11.63,11.63,0,0,1,5.51-1.11A11.15,11.15,0,0,1,311,157a9.79,9.79,0,0,1,5.06,9.06A13.65,13.65,0,0,1,315.56,169.56Z"/><path class="cls-1" d="M310.9,197.87a1.25,1.25,0,0,1-.93.16L292.3,194.6a1.15,1.15,0,0,1-.95-1.4,1.17,1.17,0,0,1,.5-.78,1.14,1.14,0,0,1,.91-.17l2.63.51a8.4,8.4,0,0,1-2.42-3.53,8.16,8.16,0,0,1-.38-4.51,8.61,8.61,0,0,1,2.29-4.47,9.58,9.58,0,0,1,4.41-2.56,12.13,12.13,0,0,1,5.61-.16,11.88,11.88,0,0,1,5.13,2.26,9.52,9.52,0,0,1,3.06,4,8.9,8.9,0,0,1-1.54,9A7.58,7.58,0,0,1,308,195.2l2.44.48a1.22,1.22,0,0,1,.8.5,1.21,1.21,0,0,1-.33,1.69Zm-15.79-8.61a7.43,7.43,0,0,0,2.49,3.13,9.78,9.78,0,0,0,4.08,1.75A9.45,9.45,0,0,0,306,194a7.42,7.42,0,0,0,3.46-2,7,7,0,0,0,1.44-7.34,7.37,7.37,0,0,0-2.42-3.12,9.53,9.53,0,0,0-4.05-1.74,9.84,9.84,0,0,0-4.43.08,7.23,7.23,0,0,0-3.48,1.95,7,7,0,0,0-1.43,7.38Z"/><path class="cls-1" d="M305,209.91l-12.66-4.38a2.9,2.9,0,0,0-2.13-.15,2.07,2.07,0,0,0-1,1.23,2.14,2.14,0,0,0-.11.59,2.34,2.34,0,0,1-.08.57.78.78,0,0,1-.49.48,1,1,0,0,1-.75,0,1.09,1.09,0,0,1-.68-.91,2.93,2.93,0,0,1,.14-1.56,8.4,8.4,0,0,1,.82-1.75,3,3,0,0,1,1.66-1.14,5.25,5.25,0,0,1,3.28.31l12.78,4.42,1-2.76a1.22,1.22,0,0,1,.57-.67,1.1,1.1,0,0,1,.87-.06,1.08,1.08,0,0,1,.65.59,1.16,1.16,0,0,1,0,.88l-1,2.76,4.2,1.45a1.14,1.14,0,0,1,.7.6,1.26,1.26,0,0,1-.56,1.63,1.17,1.17,0,0,1-.92,0l-4.2-1.46-1.31,3.78a1,1,0,0,1-.59.62,1.11,1.11,0,0,1-.87.06,1,1,0,0,1-.63-.55,1.16,1.16,0,0,1,0-.86Z"/><path class="cls-1" d="M287.62,248.39a1.26,1.26,0,0,1-.92-.18l-15.27-9.55a1.15,1.15,0,0,1-.38-1.65,1.18,1.18,0,0,1,.75-.55,1.2,1.2,0,0,1,.91.17l2.27,1.42a8.64,8.64,0,0,1,.27-8.51A8.65,8.65,0,0,1,279,226.2a9.62,9.62,0,0,1,5-.82,12.18,12.18,0,0,1,5.29,1.87,11.84,11.84,0,0,1,4,3.95,9.48,9.48,0,0,1,1.41,4.87,8.94,8.94,0,0,1-4.68,7.86,7.62,7.62,0,0,1-4.16.93l2.1,1.31a1.25,1.25,0,0,1,.56.76,1.09,1.09,0,0,1-.15.92A1.14,1.14,0,0,1,287.62,248.39ZM276,234.69a7.55,7.55,0,0,0,1.2,3.81,9.93,9.93,0,0,0,3.18,3.1,9.6,9.6,0,0,0,4.1,1.45,7.47,7.47,0,0,0,3.94-.6,6.61,6.61,0,0,0,2.91-2.59,6.7,6.7,0,0,0,1.07-3.74,7.45,7.45,0,0,0-1.15-3.79,9.46,9.46,0,0,0-3.15-3.07,10,10,0,0,0-4.16-1.53,7.37,7.37,0,0,0-4,.58,7,7,0,0,0-4,6.38Z"/><path class="cls-1" d="M276.8,275.32a1.16,1.16,0,0,1-.86-.33l-20.15-18.27a1.13,1.13,0,0,1-.41-.83,1.15,1.15,0,0,1,.32-.86,1.19,1.19,0,0,1,.83-.41,1.14,1.14,0,0,1,.87.33l2.07,1.88a8.72,8.72,0,0,1-.31-4.31,7.88,7.88,0,0,1,2-4.1,8.66,8.66,0,0,1,4.23-2.62,9.71,9.71,0,0,1,5.1.07,11.91,11.91,0,0,1,4.89,2.76,11.79,11.79,0,0,1,3.2,4.57,9.57,9.57,0,0,1,.56,5.07,8.67,8.67,0,0,1-2.16,4.44,8.48,8.48,0,0,1-3.8,2.44,8,8,0,0,1-4.31.19l8.68,7.87a1.19,1.19,0,0,1,.41.83,1.27,1.27,0,0,1-1.16,1.28ZM260.94,253.6a7.36,7.36,0,0,0,.49,4,9.8,9.8,0,0,0,2.59,3.61,9.45,9.45,0,0,0,3.8,2.18,7.4,7.4,0,0,0,4,.1,6.54,6.54,0,0,0,3.33-2,6.65,6.65,0,0,0,1.7-3.51,7.44,7.44,0,0,0-.49-3.95,9.59,9.59,0,0,0-2.54-3.57,9.79,9.79,0,0,0-3.83-2.21,7.53,7.53,0,0,0-4-.1,7,7,0,0,0-5,5.53Z"/><path class="cls-1" d="M239.58,274.46a9.71,9.71,0,0,1,.54-5.24,10.32,10.32,0,0,1,8.17-6.31,9.7,9.7,0,0,1,5.21.79,11.92,11.92,0,0,1,6.66,8.61,10,10,0,0,1-13.93,10.76,11.83,11.83,0,0,1-6.65-8.61Zm7.61,6.45a7.52,7.52,0,0,0,4.05.69,7.54,7.54,0,0,0,6.22-4.8,7.85,7.85,0,0,0,.35-4.09,9.57,9.57,0,0,0-5.26-6.81,8,8,0,0,0-4.05-.69,7.29,7.29,0,0,0-3.77,1.53,7.44,7.44,0,0,0-2.82,7.34,9.81,9.81,0,0,0,5.28,6.83Z"/><path class="cls-1" d="M231.91,297.11a1,1,0,0,1-1-.53,1.24,1.24,0,0,1-.17-.94,1,1,0,0,1,.5-.66,2.82,2.82,0,0,1,.78-.21,3.51,3.51,0,0,0,1.05-.37,4.72,4.72,0,0,0,2-2.43,8.86,8.86,0,0,0,.65-3.74,7.74,7.74,0,0,0-1-3.63L229.91,276a1.18,1.18,0,0,1-.13-.91,1.16,1.16,0,0,1,.59-.72,1.18,1.18,0,0,1,.91-.13,1.16,1.16,0,0,1,.72.59l8.78,15.62a1.16,1.16,0,0,1-.46,1.63,1.2,1.2,0,0,1-.92.13,1.17,1.17,0,0,1-.71-.59L237,288.54a9.17,9.17,0,0,1-.57,4.65,6.92,6.92,0,0,1-3.06,3.49A3.33,3.33,0,0,1,231.91,297.11Z"/><path class="cls-1" d="M206.94,296.78a1.15,1.15,0,0,1,.66-.62l14.05-5.57a9.3,9.3,0,0,0-2.49-3.64,7.45,7.45,0,0,0-3.71-1.76,8.27,8.27,0,0,0-4.4.56,7.51,7.51,0,0,0-2.91,2,7.12,7.12,0,0,0-1.51,2.8,1.33,1.33,0,0,1-.65.64,1,1,0,0,1-.79,0,1,1,0,0,1-.56-.55,1.18,1.18,0,0,1,.06-.93,10.1,10.1,0,0,1,2.05-3.56,8.82,8.82,0,0,1,3.45-2.44,10.87,10.87,0,0,1,5.54-.78,9.34,9.34,0,0,1,4.78,2.08,11.23,11.23,0,0,1,3.26,4.63,12.21,12.21,0,0,1,.9,5.82,9.38,9.38,0,0,1-1.83,4.77,8.84,8.84,0,0,1-3.8,2.9,9.5,9.5,0,0,1-4.59.62,8.92,8.92,0,0,1-4.39-1.79,9.93,9.93,0,0,1-3.15-4.26A1.09,1.09,0,0,1,206.94,296.78Zm14.66,1.1a7.43,7.43,0,0,0,.66-5.21l-12.68,5,.12.3a6.34,6.34,0,0,0,2.27,2.48,6.53,6.53,0,0,0,3.08,1,7.08,7.08,0,0,0,3.14-.49A6.71,6.71,0,0,0,221.6,297.88Z"/><path class="cls-1" d="M192.12,310.81a1,1,0,0,1-.85-.79,1.27,1.27,0,0,1,.1-.95,1,1,0,0,1,.66-.5,2.68,2.68,0,0,1,.81,0,3.35,3.35,0,0,0,1.11-.06,4.77,4.77,0,0,0,2.6-1.8,8.78,8.78,0,0,0,1.64-3.42,7.87,7.87,0,0,0,.07-3.76l-2.31-9.6a1.21,1.21,0,0,1,.13-.92,1.2,1.2,0,0,1,2.21.36l4.18,17.42a1.16,1.16,0,0,1-.89,1.45,1.14,1.14,0,0,1-.91-.13,1.16,1.16,0,0,1-.54-.76l-.82-3.42a9.17,9.17,0,0,1-1.82,4.32,6.85,6.85,0,0,1-3.9,2.52A3.19,3.19,0,0,1,192.12,310.81Z"/><path class="cls-1" d="M154.89,304.13a1.22,1.22,0,0,1-.34-.86,1.14,1.14,0,0,1,1.15-1.14l7-.11-.11-7.32a1.26,1.26,0,0,1,.34-.94,1.22,1.22,0,0,1,.91-.4,1.26,1.26,0,0,1,.91.37,1.18,1.18,0,0,1,.39.89l.12,7.36,7-.11a1.1,1.1,0,0,1,.85.32,1.18,1.18,0,0,1,.33.86,1,1,0,0,1-.3.8,1.15,1.15,0,0,1-.84.34l-7,.11.12,7.28a1.21,1.21,0,0,1-.35.92,1.26,1.26,0,0,1-2.21-.84l-.12-7.32-7,.11A1.08,1.08,0,0,1,154.89,304.13Z"/><path class="cls-1" d="M122.06,308.12a7.57,7.57,0,0,1-2.27-1.71,2,2,0,0,1-.59-1.74,1.22,1.22,0,0,1,.47-.71.92.92,0,0,1,.81-.18,1.15,1.15,0,0,1,.6.31,2.91,2.91,0,0,1,.46.6,4,4,0,0,0,.79,1,7.09,7.09,0,0,0,1.44.81,12,12,0,0,0,2,.65,7.47,7.47,0,0,0,4.17-.16,7.94,7.94,0,0,0,3.48-2.3,8.8,8.8,0,0,0,2-3.89,9.22,9.22,0,0,0,0-4.43,7.5,7.5,0,0,0-5.71-5.59,9,9,0,0,0-2.29-.29,8.17,8.17,0,0,0-1.81.27,7.69,7.69,0,0,0-1.1.48,3.9,3.9,0,0,1-.64.28,1.1,1.1,0,0,1-.54,0,1,1,0,0,1-.67-.47,1.09,1.09,0,0,1-.1-.82c.11-.45.53-.85,1.27-1.2a8.27,8.27,0,0,1,2.88-.7,11.66,11.66,0,0,1,3.75.31,9.8,9.8,0,0,1,4.74,2.54,9.33,9.33,0,0,1,2.57,4.53,11.87,11.87,0,0,1,0,5.62,11.32,11.32,0,0,1-2.48,4.91,9.8,9.8,0,0,1-9.9,3.1A14.08,14.08,0,0,1,122.06,308.12Z"/><path class="cls-1" d="M98.54,297.24a9.17,9.17,0,0,1,.61-6.05l4.35-10.45a1.13,1.13,0,0,1,.64-.66,1.16,1.16,0,0,1,.93,0,1.17,1.17,0,0,1,.66.65,1.14,1.14,0,0,1,0,.92l-4.35,10.45a6.79,6.79,0,0,0-.47,4.38,4.56,4.56,0,0,0,3,3,6.84,6.84,0,0,0,6.3-.56,5,5,0,0,0,2-2.33l4.35-10.45a1.16,1.16,0,0,1,1.57-.64,1.13,1.13,0,0,1,.66.64,1.16,1.16,0,0,1,0,.93l-10.44,25.11a1.14,1.14,0,0,1-.65.66,1.23,1.23,0,0,1-1.58-.66,1.13,1.13,0,0,1,0-.92l4.5-10.82a8.43,8.43,0,0,1-3.85,1.45,7.87,7.87,0,0,1-4-.49A6.36,6.36,0,0,1,98.54,297.24Z"/><path class="cls-1" d="M81.28,271.54a9.82,9.82,0,0,1,5.13-1.27,10,10,0,0,1,5.09,1.61,9.88,9.88,0,0,1,3.61,3.94,9.75,9.75,0,0,1,1,5.18,11.87,11.87,0,0,1-5.85,9.17,9.81,9.81,0,0,1-10.23-.3,9.87,9.87,0,0,1-4.61-9.15,11.89,11.89,0,0,1,5.84-9.18Zm-3.49,9.35a7.61,7.61,0,0,0,.73,4A7.42,7.42,0,0,0,81.25,288a7.23,7.23,0,0,0,3.9,1.17,7.83,7.83,0,0,0,4-1,9.53,9.53,0,0,0,4.62-7.25,7.67,7.67,0,0,0-.72-4,7.21,7.21,0,0,0-2.71-3,7.49,7.49,0,0,0-7.86-.17,9.84,9.84,0,0,0-4.65,7.29Z"/><path class="cls-1" d="M56.33,270.8a7.42,7.42,0,0,1-1.17-2.58,2,2,0,0,1,.31-1.82,1.2,1.2,0,0,1,.76-.39.93.93,0,0,1,.79.22,1.27,1.27,0,0,1,.38.56,3,3,0,0,1,.11.75,4.06,4.06,0,0,0,.24,1.23,6.4,6.4,0,0,0,.87,1.4,12.73,12.73,0,0,0,1.44,1.53,7.48,7.48,0,0,0,3.74,1.85A7.88,7.88,0,0,0,68,273.2a8.83,8.83,0,0,0,3.61-2.46,9.35,9.35,0,0,0,2.14-3.88,7.53,7.53,0,0,0-2.34-7.64,9.15,9.15,0,0,0-1.88-1.36,8.34,8.34,0,0,0-1.72-.62,8,8,0,0,0-1.19-.11,3.37,3.37,0,0,1-.7-.06,1.09,1.09,0,0,1-.48-.24,1,1,0,0,1-.36-.74,1,1,0,0,1,.31-.76,2.06,2.06,0,0,1,1.69-.45,8.41,8.41,0,0,1,2.86.77A11.87,11.87,0,0,1,73,257.71a9.86,9.86,0,0,1,2.95,4.5,9.32,9.32,0,0,1,.08,5.21,11.7,11.7,0,0,1-2.72,4.92,11.18,11.18,0,0,1-4.52,3.12,9.82,9.82,0,0,1-10.17-2A13.89,13.89,0,0,1,56.33,270.8Z"/><path class="cls-1" d="M49.64,239.29a9.78,9.78,0,0,1,5.26.45,10,10,0,0,1,4.3,3.17A9.82,9.82,0,0,1,60.65,253a11.87,11.87,0,0,1-8.49,6.8,10,10,0,0,1-11-13.73,11.91,11.91,0,0,1,8.49-6.81ZM43.33,247a7.65,7.65,0,0,0-.62,4.06,7.32,7.32,0,0,0,1.61,3.76,7.13,7.13,0,0,0,3.31,2.37,7.74,7.74,0,0,0,4.09.28,9.52,9.52,0,0,0,6.71-5.38,7.75,7.75,0,0,0,.62-4.06,7.15,7.15,0,0,0-1.6-3.74,7.44,7.44,0,0,0-3.3-2.4,7.53,7.53,0,0,0-4.08-.29,9.8,9.8,0,0,0-6.74,5.4Z"/><path class="cls-1" d="M48.68,229.17a1.16,1.16,0,0,1,.74.55,1.19,1.19,0,0,1,.16.91,1.16,1.16,0,0,1-.55.74L25.87,245.64a1.2,1.2,0,1,1-1.26-2l23.16-14.27A1.14,1.14,0,0,1,48.68,229.17Z"/><path class="cls-1" d="M19.79,215.59a1.24,1.24,0,0,1,.66-.67l16.38-7.45a1.17,1.17,0,0,1,.93-.05,1.15,1.15,0,0,1,.66.64,1.17,1.17,0,0,1,0,.93,1.18,1.18,0,0,1-.64.66l-2.44,1.11a8.41,8.41,0,0,1,4,1.47,8.15,8.15,0,0,1,2.93,3.46,8.57,8.57,0,0,1,.72,5A9.63,9.63,0,0,1,41,225.3a12,12,0,0,1-4.48,3.38A11.76,11.76,0,0,1,31,229.81a9.41,9.41,0,0,1-4.84-1.51,8.68,8.68,0,0,1-3.2-3.75,8.54,8.54,0,0,1-.76-4.48,7.62,7.62,0,0,1,1.52-4l-2.26,1a1.19,1.19,0,0,1-.94.06,1.22,1.22,0,0,1-.71-1.57Zm17.85-2.14a7.31,7.31,0,0,0-3.84-1.11,9.93,9.93,0,0,0-4.34.94A9.53,9.53,0,0,0,26,215.89a7.45,7.45,0,0,0-1.67,3.62,6.57,6.57,0,0,0,.55,3.86,6.66,6.66,0,0,0,2.53,3,7.36,7.36,0,0,0,3.79,1.13,9.56,9.56,0,0,0,4.3-.93,10,10,0,0,0,3.57-2.63,7.35,7.35,0,0,0,1.7-3.61,6.62,6.62,0,0,0-.57-3.89A6.51,6.51,0,0,0,37.64,213.45Z"/><path class="cls-1" d="M17.63,202.37l12.86-3.78a2.85,2.85,0,0,0,1.82-1.11,2.05,2.05,0,0,0,.1-1.57,2.12,2.12,0,0,0-.27-.55,2.32,2.32,0,0,1-.25-.51.8.8,0,0,1,.11-.68,1.12,1.12,0,0,1,.6-.45,1.1,1.1,0,0,1,1.08.35,2.94,2.94,0,0,1,.8,1.35,8.55,8.55,0,0,1,.35,1.9,3,3,0,0,1-.7,1.89,5.16,5.16,0,0,1-2.85,1.65l-13,3.81.82,2.8a1.17,1.17,0,0,1-.08.88,1.11,1.11,0,0,1-1.53.45,1.16,1.16,0,0,1-.54-.7l-.82-2.8-4.26,1.25a1.17,1.17,0,0,1-.92-.08,1.21,1.21,0,0,1-.57-.73,1.17,1.17,0,0,1,.08-.92,1.21,1.21,0,0,1,.73-.57L15.48,203l-1.12-3.84a1,1,0,0,1,.12-.85,1.16,1.16,0,0,1,.67-.55,1,1,0,0,1,.84.09,1.06,1.06,0,0,1,.51.68Z"/><path class="cls-1" d="M.29,161.51a1.15,1.15,0,0,1,.84-.39l27.15-1.64a1.18,1.18,0,0,1,.88.29,1.15,1.15,0,0,1,.39.84,1.19,1.19,0,0,1-.29.88,1.15,1.15,0,0,1-.84.39l-2.79.17a8.66,8.66,0,0,1,3.29,2.78,7.88,7.88,0,0,1,1.54,4.3A8.61,8.61,0,0,1,29.38,174a9.77,9.77,0,0,1-3.61,3.61,12,12,0,0,1-5.4,1.56,11.64,11.64,0,0,1-5.5-.91,9.49,9.49,0,0,1-4-3.14A8.76,8.76,0,0,1,10.1,166,8.1,8.1,0,0,1,13,162.81l-11.7.71a1.19,1.19,0,0,1-.88-.29,1.15,1.15,0,0,1-.39-.84A1.19,1.19,0,0,1,.29,161.51Zm26.62,3.85a7.23,7.23,0,0,0-3.17-2.42,9.74,9.74,0,0,0-4.39-.67,9.63,9.63,0,0,0-4.22,1.19,7.4,7.4,0,0,0-2.85,2.78,6.86,6.86,0,0,0,.45,7.46,7.41,7.41,0,0,0,3.17,2.42,9.64,9.64,0,0,0,4.33.68,9.74,9.74,0,0,0,4.25-1.2,7.43,7.43,0,0,0,2.86-2.78,6.52,6.52,0,0,0,.87-3.8A6.62,6.62,0,0,0,26.91,165.36Z"/><path class="cls-1" d="M21,135.48a1.14,1.14,0,0,1,.24.87l-1.64,15a9.19,9.19,0,0,0,4.38-.5,7.35,7.35,0,0,0,3.28-2.46,8.06,8.06,0,0,0,1.57-4.15,7.27,7.27,0,0,0-.42-3.51,7.1,7.1,0,0,0-1.77-2.65,1.38,1.38,0,0,1-.26-.87,1.09,1.09,0,0,1,1.15-.92,1.17,1.17,0,0,1,.79.49,10,10,0,0,1,2.19,3.48,8.92,8.92,0,0,1,.55,4.18,11,11,0,0,1-1.91,5.27A9.32,9.32,0,0,1,25.1,153a11.12,11.12,0,0,1-5.61.71,12.11,12.11,0,0,1-5.56-1.92,9.29,9.29,0,0,1-3.36-3.85,8.67,8.67,0,0,1-.79-4.71,9.42,9.42,0,0,1,1.6-4.35,8.87,8.87,0,0,1,3.63-3,10,10,0,0,1,5.24-.8A1.13,1.13,0,0,1,21,135.48ZM13.2,147.92a7.43,7.43,0,0,0,4.3,3L19,137.39l-.32,0a6.32,6.32,0,0,0-3.25.84,6.58,6.58,0,0,0-2.3,2.27,7.18,7.18,0,0,0-1,3A6.73,6.73,0,0,0,13.2,147.92Z"/><path class="cls-1" d="M17.08,110.79a.87.87,0,0,1,.79-.15,1.46,1.46,0,0,1,.61.33l15.65,12.46a1.51,1.51,0,0,1,.4.59,1,1,0,0,1,0,.65,1.11,1.11,0,0,1-.34.66,1.28,1.28,0,0,1-.71.3l-19.83,2.69a.93.93,0,0,0-.25,0,1.22,1.22,0,0,1-.33,0,1.17,1.17,0,0,1-.7-.53,1.2,1.2,0,0,1-.08-1,1.12,1.12,0,0,1,.38-.58,1.41,1.41,0,0,1,.69-.28l17.42-2.24L17,112.77a1.51,1.51,0,0,1-.44-.6,1,1,0,0,1,0-.72A1.22,1.22,0,0,1,17.08,110.79Z"/><path class="cls-1" d="M41.51,94.14a9.66,9.66,0,0,1,1.93,4.91,10.33,10.33,0,0,1-4.36,9.35,9.71,9.71,0,0,1-5,1.69,11.87,11.87,0,0,1-9.87-4.6,10,10,0,0,1-1.94-4.92,9.82,9.82,0,0,1,.91-5.27,9.71,9.71,0,0,1,3.45-4.08,9.9,9.9,0,0,1,5-1.68,11.84,11.84,0,0,1,9.86,4.6ZM31.79,91.9a7.6,7.6,0,0,0-3.91,1.24,7.36,7.36,0,0,0-2.67,3.11,7.28,7.28,0,0,0-.65,4,7.73,7.73,0,0,0,1.56,3.8,9,9,0,0,0,3.48,2.75,8.86,8.86,0,0,0,4.31.88,7.76,7.76,0,0,0,3.91-1.24,7.23,7.23,0,0,0,2.66-3.09,7.47,7.47,0,0,0-.86-7.81,9.83,9.83,0,0,0-7.83-3.65Z"/><path class="cls-1" d="M41.7,66.41a1.2,1.2,0,0,1,.9.22l9.25,6.45a8,8,0,0,1,3.68,5.25,8.45,8.45,0,0,1-1.76,6.19,8.28,8.28,0,0,1-5.16,3.73,8,8,0,0,1-6.19-1.65l-9.25-6.45a1.21,1.21,0,0,1-.51-.78,1.12,1.12,0,0,1,.21-.89,1.15,1.15,0,0,1,1.67-.3l9.26,6.45a5.87,5.87,0,0,0,4.46,1.26,5.89,5.89,0,0,0,3.68-2.65,6,6,0,0,0,1.25-4.42,5.84,5.84,0,0,0-2.71-3.77L41.23,68.6a1.15,1.15,0,0,1-.3-1.67A1.16,1.16,0,0,1,41.7,66.41Z"/><path class="cls-1" d="M54.78,50.87a1,1,0,0,1,1.14.19,1.27,1.27,0,0,1,.44.85,1,1,0,0,1-.27.79,3.37,3.37,0,0,1-.68.43,3.3,3.3,0,0,0-.9.67,4.76,4.76,0,0,0-1.17,2.92,8.9,8.9,0,0,0,.51,3.77,7.93,7.93,0,0,0,2,3.17L63.1,70.4a1.14,1.14,0,0,1,.39.83,1.18,1.18,0,0,1-.33.86,1.16,1.16,0,0,1-1.7.06L48.36,59.93A1.2,1.2,0,1,1,50,58.17l2.58,2.4A9,9,0,0,1,51.7,56a6.93,6.93,0,0,1,1.86-4.25A3.27,3.27,0,0,1,54.78,50.87Z"/><path class="cls-1" d="M78.67,43.59a1.19,1.19,0,0,1-.44.8L66.54,54A9.09,9.09,0,0,0,70,56.67a7.39,7.39,0,0,0,4.07.55,8.21,8.21,0,0,0,4-1.87,7.44,7.44,0,0,0,2.16-2.8,7.19,7.19,0,0,0,.59-3.13,1.36,1.36,0,0,1,.42-.81,1.1,1.1,0,0,1,1.47.15,1.22,1.22,0,0,1,.22.9,10,10,0,0,1-.87,4,8.73,8.73,0,0,1-2.54,3.37,11,11,0,0,1-5,2.43A9.3,9.3,0,0,1,69.33,59a11.15,11.15,0,0,1-4.51-3.42,12,12,0,0,1-2.63-5.26,9.4,9.4,0,0,1,.29-5.1,8.75,8.75,0,0,1,2.73-3.92,9.39,9.39,0,0,1,4.2-2,8.81,8.81,0,0,1,4.72.37,9.94,9.94,0,0,1,4.3,3.1A1.1,1.1,0,0,1,78.67,43.59ZM64.37,47a7.43,7.43,0,0,0,.95,5.17l10.55-8.64-.2-.25a6.37,6.37,0,0,0-6.14-1.66A7.24,7.24,0,0,0,66.69,43,6.72,6.72,0,0,0,64.37,47Z"/><path class="cls-1" d="M88.45,25.73a1,1,0,0,1,1,.48,1.27,1.27,0,0,1,.19.94,1,1,0,0,1-.47.69,3.15,3.15,0,0,1-.77.23,3.37,3.37,0,0,0-1,.4A4.7,4.7,0,0,0,85.49,31,9,9,0,0,0,85,34.73a7.92,7.92,0,0,0,1.09,3.6l5.14,8.44a1.17,1.17,0,0,1-.41,1.65,1.19,1.19,0,0,1-.91.16,1.2,1.2,0,0,1-.74-.56L79.82,32.71a1.17,1.17,0,0,1,.41-1.65,1.19,1.19,0,0,1,.91-.16,1.2,1.2,0,0,1,.74.56l1.82,3a9.37,9.37,0,0,1,.41-4.68,7,7,0,0,1,3-3.59A3.11,3.11,0,0,1,88.45,25.73Z"/><path class="cls-1" d="M123.21,32.91a1.67,1.67,0,0,1-.68-1l-.24-.8a1.63,1.63,0,0,1,0-1.18,1.31,1.31,0,0,1,.88-.68l.27-.08a1.31,1.31,0,0,1,1.11.09,1.58,1.58,0,0,1,.66,1l.24.8a1.7,1.7,0,0,1,0,1.2,1.33,1.33,0,0,1-.88.7l-.27.08A1.27,1.27,0,0,1,123.21,32.91Z"/></g></g></svg>