<svg width="64" height="104" viewBox="0 0 64 104" fill="none" xmlns="http://www.w3.org/2000/svg">
<g clip-path="url(#clip0_242_1409)">
<path fill-rule="evenodd" clip-rule="evenodd" d="M22.7025 72.8182C20.6656 72.4695 14.7134 68.8605 13.204 67.9323C13.0119 67.7957 12.9346 67.5383 13.0355 67.3352C13.8646 65.6398 17.3782 58.7232 19.2025 57.2145C23.4748 53.686 32.9138 53.0202 34.9386 52.8977C35.1743 52.8916 35.3664 53.0282 35.419 53.2391L38.7233 67.1853C38.7758 67.3962 38.6858 67.5636 38.5353 67.6736C36.8633 68.6831 28.3171 73.8301 22.7025 72.8182Z" fill="#F4CECE" stroke="white" stroke-miterlimit="10"/>
<path fill-rule="evenodd" clip-rule="evenodd" d="M37.9462 23.8868C36.0617 23.0389 29.1086 22.7097 27.3382 22.637C27.1025 22.6431 26.8946 22.8135 26.865 23.0382C26.6063 24.9078 25.6595 32.6076 26.3306 34.8778C27.9049 40.1905 35.364 46.0129 36.9754 47.2451C37.1676 47.3817 37.4032 47.3756 37.5646 47.23L48.0816 37.5404C48.2429 37.3948 48.2616 37.2057 48.1982 37.0304C47.4213 35.2346 43.2049 26.1929 37.9462 23.8868Z" fill="#F4CECE" stroke="white" stroke-miterlimit="10"/>
<path fill-rule="evenodd" clip-rule="evenodd" d="M41.1342 23.1449C38.5132 28.5413 38.5824 33.5505 39.1767 36.9664C37.4704 36.1729 35.6849 35.5111 33.8697 35.0741C26.7657 33.4518 15.9848 41.58 13.4764 43.5424C13.1646 43.798 13.034 44.2258 13.1857 44.6228C14.258 47.3662 18.8653 58.3197 26.1432 61.6707C27.5861 62.3059 29.0477 62.7519 30.5281 63.0088C28.1635 65.5217 25.4381 69.6002 24.5966 75.4227C23.11 85.5299 31.9223 95.8571 31.9223 95.8571C31.9223 95.8571 38.1257 84.8511 42.6331 79.9135C45.6835 76.5577 49.5479 73.2165 52.5994 72.6668C59.3767 71.6564 65.3259 66.847 67.4582 59.8596C69.4381 53.3713 67.6494 46.5904 63.3336 41.9609C61.1138 39.5299 59.3346 34.5054 58.605 29.4895C57.6224 22.8766 58.6208 10.2823 58.6208 10.2823C58.6208 10.2823 45.5441 13.9298 41.1342 23.1449Z" fill="#FFF5F5" stroke="white" stroke-miterlimit="10"/>
</g>
<defs>
<clipPath id="clip0_242_1409">
<rect width="90.2375" height="56.9529" fill="white" transform="translate(0 86.4274) rotate(-73.0299)"/>
</clipPath>
</defs>
</svg>
