<svg width="194" height="387" viewBox="0 0 194 387" fill="none" xmlns="http://www.w3.org/2000/svg">
<path d="M168.76 228.582C159.114 234.279 149.518 231.555 142.579 240.225C135.309 249.329 140.717 258.472 137.474 269.724C134.49 280.03 125.892 282.98 127.469 293.668C129.118 304.868 139.684 307.987 145.807 317.558C152.02 327.314 146.622 334.412 156.431 341.871C166.239 349.329 175.515 345.638 186.211 348.284C195.753 350.624 200.322 357.528 210.034 356.454C221.67 355.128 223.92 346.093 234.098 340.457C243.248 335.412 252.315 336.706 258.723 328.432C265.314 320.068 259.538 311.56 262.119 301.177C264.683 290.666 273.485 285.927 271.835 275.184C270.33 265.466 262.456 262.908 257.596 254.411C252.152 245.012 254.273 235.993 245.801 229.208C236.89 222.089 228.198 226.682 217.192 223.685C205.929 220.722 200.284 210.828 188.829 212.978C179.244 214.948 177.086 223.71 168.76 228.582Z" fill="#342929" stroke="white" stroke-width="2"/>
<g clip-path="url(#clip0_581_2)">
<path fill-rule="evenodd" clip-rule="evenodd" d="M72.3977 231.836C65.9021 230.724 46.9207 219.215 42.1074 216.255C41.4946 215.819 41.2481 214.999 41.5699 214.351C44.214 208.944 55.4187 186.888 61.2365 182.076C74.8606 170.824 104.961 168.701 111.419 168.31C112.17 168.291 112.783 168.726 112.95 169.399L123.488 213.873C123.655 214.546 123.368 215.079 122.888 215.43C117.556 218.65 90.3025 235.063 72.3977 231.836Z" fill="#F4CECE" stroke="white" stroke-miterlimit="10"/>
<path fill-rule="evenodd" clip-rule="evenodd" d="M121.01 75.7948C115 73.0909 92.8268 72.0411 87.1809 71.8095C86.4294 71.8287 85.7665 72.3721 85.672 73.0889C84.8469 79.0507 81.8276 103.605 83.968 110.845C88.9884 127.787 112.775 146.355 117.914 150.284C118.527 150.72 119.278 150.7 119.793 150.236L153.331 119.336C153.846 118.872 153.905 118.269 153.703 117.71C151.226 111.983 137.779 83.1491 121.01 75.7948Z" fill="#F4CECE" stroke="white" stroke-miterlimit="10"/>
<path fill-rule="evenodd" clip-rule="evenodd" d="M131.176 73.4293C122.818 90.6381 123.038 106.612 124.934 117.505C119.492 114.975 113.798 112.865 108.01 111.471C85.3552 106.298 50.975 132.218 42.9759 138.476C41.9816 139.291 41.5652 140.656 42.0488 141.922C45.4685 150.67 60.1609 185.601 83.3701 196.287C87.9714 198.313 92.6326 199.735 97.3535 200.554C89.8129 208.568 81.1215 221.574 78.438 240.142C73.6974 272.373 101.799 305.307 101.799 305.307C101.799 305.307 121.582 270.209 135.956 254.463C145.684 243.761 158.007 233.106 167.738 231.354C189.351 228.131 208.323 212.794 215.123 190.512C221.437 169.821 215.732 148.196 201.969 133.433C194.89 125.681 189.217 109.658 186.89 93.662C183.756 72.5735 186.941 32.4106 186.941 32.4106C186.941 32.4106 145.239 44.0426 131.176 73.4293Z" fill="#FFF5F5" stroke="white" stroke-miterlimit="10"/>
</g>
<defs>
<clipPath id="clip0_581_2">
<rect width="287.765" height="181.621" fill="white" transform="translate(0 275.235) rotate(-73.0299)"/>
</clipPath>
</defs>
</svg>
