<svg width="63" height="124" viewBox="0 0 63 124" fill="none" xmlns="http://www.w3.org/2000/svg">
<g clip-path="url(#clip0_242_1413)">
<path d="M0.294518 70.119C4.37946 70.119 7.69096 66.8144 7.69096 62.738C7.69096 58.6616 4.37946 55.3571 0.294518 55.3571C-3.79043 55.3571 -7.10193 58.6616 -7.10193 62.738C-7.10193 66.8144 -3.79043 70.119 0.294518 70.119Z" fill="white" stroke="#FFF5F5" stroke-miterlimit="10"/>
<path d="M1.1164 49.6165C-2.99274 49.6165 -4.06112 18.6985 -2.17091 8.61121C-1.67782 6.06889 -0.527257 0.410156 4.40371 0.410156C9.33468 0.410156 9.99214 6.1509 10.1565 8.61121C10.9783 19.1086 5.22554 49.6165 1.1164 49.6165Z" fill="#FFCCCC" stroke="white" stroke-miterlimit="10"/>
<path d="M8.10185 51.1747C4.40362 49.4524 16.6488 20.9948 22.6482 12.7117C24.2097 10.5794 27.6613 5.98682 32.0992 8.1191C36.5371 10.2514 34.6469 15.6641 33.825 17.9604C30.0446 27.7196 11.8001 52.8969 8.10185 51.1747Z" fill="#FFCCCC" stroke="white" stroke-miterlimit="10"/>
<path d="M11.8822 56.5873C9.4167 53.3068 33.6606 34.0343 42.8651 29.4417C45.2484 28.2936 50.4259 25.8333 53.3845 29.8518C56.343 33.8703 52.0696 37.7248 50.2615 39.365C42.372 46.2539 14.3477 59.8677 11.8822 56.5873Z" fill="#FFCCCC" stroke="white" stroke-miterlimit="10"/>
<path d="M13.3616 63.0662C12.6219 59.0477 42.9474 52.4868 53.2202 52.4868C55.8501 52.4868 61.6029 52.6508 62.5069 57.4895C63.4109 62.3281 57.9046 63.9683 55.4391 64.6244C45.2485 67.3308 14.1012 67.0847 13.3616 63.0662Z" fill="#FFCCCC" stroke="white" stroke-miterlimit="10"/>
<path d="M-2.41752 75.1218C1.60943 75.7779 -2.4997 106.45 -6.03356 116.127C-6.93757 118.587 -8.99214 123.918 -13.9231 123.098C-18.7719 122.278 -18.4432 116.537 -18.1966 114.077C-17.2926 103.579 -6.44447 74.3837 -2.41752 75.1218Z" fill="#FFCCCC" stroke="white" stroke-miterlimit="10"/>
<path d="M4.65015 75.2858C8.59492 74.1376 18.3747 103.415 19.5252 113.667C19.7718 116.291 20.2649 122.032 15.5805 123.426C10.8139 124.82 8.59492 119.489 7.69091 117.193C3.82832 107.352 0.705378 76.4339 4.65015 75.2858Z" fill="#FFCCCC" stroke="white" stroke-miterlimit="10"/>
<path d="M9.33454 72.7433C11.9644 69.6269 36.2905 88.7354 42.8651 96.6904C44.5088 98.7407 48.0426 103.251 44.9197 107.024C41.7146 110.796 36.948 107.598 34.8934 106.122C26.2642 100.053 6.70469 75.8597 9.33454 72.7433Z" fill="#FFCCCC" stroke="white" stroke-miterlimit="10"/>
<path d="M14.5944 69.6271C15.4984 65.6086 45.906 71.4313 55.357 75.5318C57.7403 76.598 63 78.9763 61.9317 83.7329C60.8633 88.4895 55.1105 87.8334 52.645 87.5054C42.2078 86.0292 13.6904 73.6456 14.5944 69.6271Z" fill="#FFCCCC" stroke="white" stroke-miterlimit="10"/>
</g>
<defs>
<clipPath id="clip0_242_1413">
<rect width="125" height="124" fill="white" transform="translate(-62)"/>
</clipPath>
</defs>
</svg>
