<svg width="38" height="72" viewBox="0 0 38 72" fill="none" xmlns="http://www.w3.org/2000/svg">
<path d="M22.56 49.46C22.56 49.46 16.74 50 16.74 42.62V28.94H22.08C22.14 28.94 28.5 28.82 29.22 36.02H29.76V21.32H29.22C28.5 28.58 22.14 28.4 22.08 28.4H16.74V8.3H18.9C18.9 8.3 35.82 8.36 35.82 20.06H36.36V7.76H1.5V8.24C4.14 8.24 4.98 12.32 4.98 16.04V41.78C4.98 45.86 4.02 49.46 1.5 49.46V50H22.56V49.46Z" fill="#342929"/>
<path d="M29.6421 39.117C29.6117 38.961 29.3993 38.961 29.3689 39.117C29.1565 40.1468 28.7923 41.8007 28.3977 42.5184C27.8514 43.5482 26.6677 44.1723 26.0911 44.422C25.9696 44.4844 25.9696 44.6404 26.0911 44.7028C26.6374 44.9525 27.7907 45.5454 28.3673 46.4816C28.8833 47.3241 29.2475 48.9156 29.4296 49.883C29.46 50.039 29.6724 50.039 29.7028 49.883C29.9152 48.8532 30.3098 47.1681 30.8257 46.3879C31.2506 45.7326 32.3736 45.0461 32.9199 44.7652C33.0413 44.7028 33.011 44.5468 32.9199 44.4844C32.3736 44.2348 31.1292 43.5794 30.5829 42.6121C30.1277 41.8319 29.8242 40.1468 29.6421 39.117Z" fill="#342929"/>
</svg>
