<svg xmlns="http://www.w3.org/2000/svg" viewBox="0 0 321.45 323.1"><defs><style>.cls-1{fill:#ff4d43;}</style></defs><title>Fichier 3</title><g id="Calque_2" data-name="Calque 2"><g id="Calque_1-2" data-name="Calque 1"><path class="cls-1" d="M168,27.65a1.23,1.23,0,0,1-.9.33,1.17,1.17,0,0,1-1.19-1.28l.91-25.51a1.15,1.15,0,0,1,.39-.88,1.3,1.3,0,0,1,.93-.31,1.18,1.18,0,0,1,.87.39,1.22,1.22,0,0,1,.33.89l-.91,25.51A1.34,1.34,0,0,1,168,27.65Z"/><path class="cls-1" d="M180.54,5.4a6,6,0,0,1-1.65,1.7,2.76,2.76,0,0,1-1.79.53,1.24,1.24,0,0,1-.71-.29.79.79,0,0,1-.23-.69.68.68,0,0,1,.26-.54,1.83,1.83,0,0,1,.64-.21,3.27,3.27,0,0,0,.65-.17,2,2,0,0,0,.94-.73,2.54,2.54,0,0,0,.42-1.14,1.07,1.07,0,0,0-.17-.74.79.79,0,0,0-.6-.35,1.8,1.8,0,0,0-1.11.25,1.19,1.19,0,0,1-.38-1,1.55,1.55,0,0,1,.84-1.14A2.59,2.59,0,0,1,179.26.5a2.29,2.29,0,0,1,1.62.83,2.48,2.48,0,0,1,.47,1.88A5.06,5.06,0,0,1,180.54,5.4Z"/><path class="cls-1" d="M215.55,18.52a9.35,9.35,0,0,1,.08,6.1l-3,10.92a1.17,1.17,0,0,1-1.48.83,1.12,1.12,0,0,1-.73-.55,1.17,1.17,0,0,1-.1-.92l3-10.8a6.94,6.94,0,0,0-.07-4.48A4.6,4.6,0,0,0,209.9,17a6.74,6.74,0,0,0-3.28-.07,6.47,6.47,0,0,0-2.91,1.46A5.22,5.22,0,0,0,202,21l-3,10.8a1.22,1.22,0,0,1-2.22.28,1.21,1.21,0,0,1-.1-.92l3-10.91a6.89,6.89,0,0,0,0-4.39,4.36,4.36,0,0,0-3.19-2.56,6.31,6.31,0,0,0-3.2,0,6.63,6.63,0,0,0-2.85,1.43,5.05,5.05,0,0,0-1.63,2.56l-3,10.91a1.2,1.2,0,0,1-.55.74,1.17,1.17,0,0,1-.92.1,1.18,1.18,0,0,1-.74-.56,1.17,1.17,0,0,1-.1-.92l4.77-17.27a1.14,1.14,0,0,1,.55-.74,1.17,1.17,0,0,1,.92-.1,1.17,1.17,0,0,1,.84,1.48L190,13.1a8.69,8.69,0,0,1,3.54-1.84,7.55,7.55,0,0,1,4,0,7,7,0,0,1,3.56,2.14,6.14,6.14,0,0,1,1.44,3.8A7.39,7.39,0,0,1,206.33,15,8.88,8.88,0,0,1,211,15,6.24,6.24,0,0,1,215.55,18.52Z"/><path class="cls-1" d="M252.81,37.18a1.22,1.22,0,0,1-.19.92L242.8,53.19a1.16,1.16,0,0,1-.76.53,1.13,1.13,0,0,1-.9-.18,1.15,1.15,0,0,1-.54-.76,1.14,1.14,0,0,1,.19-.9l1.46-2.25a8.38,8.38,0,0,1-4.18.91,8.09,8.09,0,0,1-4.33-1.34,8.57,8.57,0,0,1-3.27-3.8,9.55,9.55,0,0,1-.72-5,12.09,12.09,0,0,1,2-5.26,11.67,11.67,0,0,1,4-3.9,9.47,9.47,0,0,1,4.89-1.32,8.88,8.88,0,0,1,7.77,4.82,7.62,7.62,0,0,1,.85,4.18l1.36-2.08a1.24,1.24,0,0,1,.76-.55,1.13,1.13,0,0,1,.92.17A1.11,1.11,0,0,1,252.81,37.18ZM238.9,48.57a7.45,7.45,0,0,0,3.84-1.12,10,10,0,0,0,3.16-3.13,9.48,9.48,0,0,0,1.52-4.06,7.47,7.47,0,0,0-.53-3.95,6.67,6.67,0,0,0-2.53-3,6.77,6.77,0,0,0-3.73-1.13,7.36,7.36,0,0,0-3.8,1.08,9.41,9.41,0,0,0-3.13,3.09,9.89,9.89,0,0,0-1.6,4.13,7.32,7.32,0,0,0,.5,4,6.73,6.73,0,0,0,2.57,3A6.57,6.57,0,0,0,238.9,48.57Z"/><path class="cls-1" d="M278.53,60.61a7.54,7.54,0,0,1,.93,2.68,2,2,0,0,1-.48,1.78,1.2,1.2,0,0,1-.8.32.89.89,0,0,1-.76-.3,1.22,1.22,0,0,1-.33-.59,3.38,3.38,0,0,1,0-.75,3.93,3.93,0,0,0-.12-1.25A6.88,6.88,0,0,0,276.2,61a11.94,11.94,0,0,0-1.3-1.66,7.51,7.51,0,0,0-3.54-2.2,8,8,0,0,0-4.18,0,8.78,8.78,0,0,0-3.82,2.11,9.27,9.27,0,0,0-2.5,3.66,7.53,7.53,0,0,0,1.61,7.83,8.74,8.74,0,0,0,1.74,1.52,7.86,7.86,0,0,0,1.65.79,7.6,7.6,0,0,0,1.18.22,3.4,3.4,0,0,1,.69.13,1,1,0,0,1,.45.29,1,1,0,0,1,.3.76,1.09,1.09,0,0,1-.39.73,2.08,2.08,0,0,1-1.72.29,8.4,8.4,0,0,1-2.77-1,11.56,11.56,0,0,1-2.94-2.35,9.89,9.89,0,0,1-2.51-4.76,9.42,9.42,0,0,1,.41-5.19,11.76,11.76,0,0,1,3.17-4.64,11.16,11.16,0,0,1,4.8-2.68,9.85,9.85,0,0,1,9.94,3A13.72,13.72,0,0,1,278.53,60.61Z"/><path class="cls-1" d="M291.7,78a1,1,0,0,1-.42,1.08,1.24,1.24,0,0,1-.92.25,1,1,0,0,1-.71-.42,2.89,2.89,0,0,1-.29-.76,3.48,3.48,0,0,0-.46-1,4.76,4.76,0,0,0-2.63-1.76,9,9,0,0,0-3.78-.28A7.88,7.88,0,0,0,279,76.46l-8.09,5.67a1.15,1.15,0,0,1-.9.21,1.11,1.11,0,0,1-.77-.5,1.16,1.16,0,0,1-.22-.9,1.21,1.21,0,0,1,.51-.78l14.68-10.28a1.2,1.2,0,1,1,1.37,2l-2.88,2a9.08,9.08,0,0,1,4.69.11,7,7,0,0,1,3.78,2.7A3.26,3.26,0,0,1,291.7,78Z"/><path class="cls-1" d="M293.86,102.94a1.22,1.22,0,0,1-.69-.59l-6.93-13.44a9.21,9.21,0,0,0-3.38,2.84,7.53,7.53,0,0,0-1.38,3.87,8.18,8.18,0,0,0,1,4.32,7.22,7.22,0,0,0,2.29,2.69,7.08,7.08,0,0,0,2.93,1.24,1.3,1.3,0,0,1,.7.58,1,1,0,0,1,.05.78,1,1,0,0,1-.49.62,1.23,1.23,0,0,1-.93,0,10,10,0,0,1-3.75-1.69,8.74,8.74,0,0,1-2.77-3.18,10.9,10.9,0,0,1-1.33-5.44,9.42,9.42,0,0,1,1.6-5,11.29,11.29,0,0,1,4.28-3.7,12.15,12.15,0,0,1,5.7-1.47,9.22,9.22,0,0,1,4.93,1.35A8.68,8.68,0,0,1,299,90.27,9.23,9.23,0,0,1,300,94.78a8.87,8.87,0,0,1-1.34,4.54,10,10,0,0,1-3.93,3.56A1.1,1.1,0,0,1,293.86,102.94Zm-.36-14.7a7.41,7.41,0,0,0-5.25-.14l6.25,12.12.29-.15A6.33,6.33,0,0,0,297,97.56a6.5,6.5,0,0,0,.66-3.15,7.18,7.18,0,0,0-.8-3.08A6.76,6.76,0,0,0,293.5,88.24Z"/><path class="cls-1" d="M310.78,123.22a1.22,1.22,0,0,1-.74.59l-17.18,5.37a1.17,1.17,0,0,1-.92-.07,1.19,1.19,0,0,1-.59-.72,1.17,1.17,0,0,1,.07-.92,1.14,1.14,0,0,1,.72-.58l2.56-.8a8.41,8.41,0,0,1-3.8-2,8.19,8.19,0,0,1-2.48-3.79,8.6,8.6,0,0,1-.1-5A9.64,9.64,0,0,1,291,111a12.09,12.09,0,0,1,4.87-2.8,11.84,11.84,0,0,1,5.58-.45,9.53,9.53,0,0,1,4.62,2.1,8.75,8.75,0,0,1,2.71,4.12,8.61,8.61,0,0,1,.2,4.55,7.7,7.7,0,0,1-2,3.77l2.36-.74a1.27,1.27,0,0,1,.94.06,1.17,1.17,0,0,1,.61.71A1.15,1.15,0,0,1,310.78,123.22Zm-18-.08a7.49,7.49,0,0,0,3.67,1.58,9.86,9.86,0,0,0,4.43-.4,9.48,9.48,0,0,0,3.76-2.16,7.46,7.46,0,0,0,2.11-3.38,6.94,6.94,0,0,0-2.21-7.15,7.37,7.37,0,0,0-3.62-1.59,9.55,9.55,0,0,0-4.39.38,10.06,10.06,0,0,0-3.86,2.17,7.28,7.28,0,0,0-2.14,3.37,6.71,6.71,0,0,0,.08,3.94A6.56,6.56,0,0,0,292.8,123.14Z"/><path class="cls-1" d="M311.28,136.63l-13.22,2.15a2.87,2.87,0,0,0-1.95.89,2,2,0,0,0-.29,1.54,2.27,2.27,0,0,0,.19.58,1.85,1.85,0,0,1,.19.54.8.8,0,0,1-.19.66,1,1,0,0,1-.65.36,1.07,1.07,0,0,1-1-.48,2.87,2.87,0,0,1-.62-1.44,7.63,7.63,0,0,1-.11-1.92,3,3,0,0,1,.92-1.79,5.26,5.26,0,0,1,3-1.29l13.35-2.17-.47-2.88a1.17,1.17,0,0,1,.18-.86,1.1,1.1,0,0,1,.74-.47,1,1,0,0,1,.84.21,1.14,1.14,0,0,1,.45.76l.47,2.88,4.38-.71a1.13,1.13,0,0,1,.9.2,1.24,1.24,0,0,1,.28,1.69,1.19,1.19,0,0,1-.79.48l-4.39.71.65,3.95a1.09,1.09,0,0,1-.23.83,1.16,1.16,0,0,1-.74.46,1,1,0,0,1-.82-.19,1.13,1.13,0,0,1-.42-.74Z"/><path class="cls-1" d="M295.08,151.18a1.17,1.17,0,0,1-.41-.83,1.21,1.21,0,0,1,.28-.89,1.16,1.16,0,0,1,.83-.4l18.34-1.41a1.21,1.21,0,0,1,.89.28,1.16,1.16,0,0,1,.4.83,1.14,1.14,0,0,1-.27.88,1.16,1.16,0,0,1-.83.4L296,151.45A1.13,1.13,0,0,1,295.08,151.18Zm23.29-3.89a1.36,1.36,0,0,1,1.06-.53l.4,0a1.36,1.36,0,0,1,1.13.38,1.87,1.87,0,0,1,.48,1.23c.08,1.06-.37,1.63-1.36,1.7l-.4,0a1.38,1.38,0,0,1-1.12-.33,1.74,1.74,0,0,1-.48-1.19A1.83,1.83,0,0,1,318.37,147.29Z"/><path class="cls-1" d="M315.24,174.71a.87.87,0,0,1-.74.34,1.56,1.56,0,0,1-.67-.18l-18.12-8.47a1.49,1.49,0,0,1-.53-.47,1.11,1.11,0,0,1-.2-.63,1.14,1.14,0,0,1,.81-1.17l18.65-7.25a.69.69,0,0,0,.24-.06.93.93,0,0,1,.33,0,1.11,1.11,0,0,1,.8.34,1.17,1.17,0,0,1,.31.93,1.09,1.09,0,0,1-.24.66,1.46,1.46,0,0,1-.59.44l-16.43,6.24,16,7.39a1.34,1.34,0,0,1,.57.48.94.94,0,0,1,.15.7A1.23,1.23,0,0,1,315.24,174.71Z"/><path class="cls-1" d="M301.25,197.13a1.18,1.18,0,0,1-.18-.89L304,181.4a9.19,9.19,0,0,0-4.41.14,7.31,7.31,0,0,0-3.48,2.17,8.18,8.18,0,0,0-1.91,4,7.37,7.37,0,0,0,.13,3.54,7.16,7.16,0,0,0,1.53,2.78,1.35,1.35,0,0,1,.19.89,1,1,0,0,1-.45.65,1,1,0,0,1-.77.18,1.24,1.24,0,0,1-.75-.56,10.22,10.22,0,0,1-1.89-3.65,8.87,8.87,0,0,1-.19-4.22,10.85,10.85,0,0,1,2.34-5.08,9.33,9.33,0,0,1,4.34-2.9,11.13,11.13,0,0,1,5.65-.24,12.06,12.06,0,0,1,5.38,2.38,9.49,9.49,0,0,1,3,4.12,8.82,8.82,0,0,1,.39,4.76,9.36,9.36,0,0,1-2,4.2,8.88,8.88,0,0,1-3.87,2.73,9.91,9.91,0,0,1-5.29.35A1.06,1.06,0,0,1,301.25,197.13Zm8.84-11.74a7.42,7.42,0,0,0-4-3.38l-2.62,13.39.31.06a6.26,6.26,0,0,0,3.32-.58,6.44,6.44,0,0,0,2.48-2.06,7.18,7.18,0,0,0,1.28-2.9A6.71,6.71,0,0,0,310.09,185.39Z"/><path class="cls-1" d="M289,244.19a9.33,9.33,0,0,1-6-1.29l-9.95-5.38a1.14,1.14,0,0,1-.6-.71,1.2,1.2,0,0,1,.11-.92,1.18,1.18,0,0,1,.71-.59,1.2,1.2,0,0,1,.92.11l9.85,5.32a6.92,6.92,0,0,0,4.38.94,4.59,4.59,0,0,0,3.32-2.64,6.85,6.85,0,0,0,0-6.35,5.27,5.27,0,0,0-2.19-2.22l-9.85-5.33a1.18,1.18,0,0,1-.6-.7,1.19,1.19,0,0,1,.11-.92,1.16,1.16,0,0,1,.71-.6,1.2,1.2,0,0,1,.92.11l10,5.38a6.86,6.86,0,0,0,4.28.95,4.36,4.36,0,0,0,3.21-2.53,6.35,6.35,0,0,0,.77-3.11,6.61,6.61,0,0,0-.76-3.1,5.16,5.16,0,0,0-2.12-2.17l-10-5.38a1.16,1.16,0,0,1-.59-.7,1.11,1.11,0,0,1,.11-.92,1.15,1.15,0,0,1,.7-.6,1.19,1.19,0,0,1,.92.11l15.77,8.52a1.22,1.22,0,0,1-.23,2.22,1.13,1.13,0,0,1-.91-.11l-2-1.1a8.8,8.8,0,0,1,1,3.86,7.64,7.64,0,0,1-.89,3.93,7.06,7.06,0,0,1-2.89,3,6.14,6.14,0,0,1-4,.56,7.42,7.42,0,0,1,1.25,4.17,8.86,8.86,0,0,1-1,4.6Q291.74,243.76,289,244.19Z"/><path class="cls-1" d="M266.8,243.09a1.26,1.26,0,0,1,1.06-1.36,1.15,1.15,0,0,1,.88.26l14.51,11.32a1.14,1.14,0,0,1,.47.8,1.12,1.12,0,0,1-.26.88,1.14,1.14,0,0,1-.79.47,1.18,1.18,0,0,1-.89-.26l-14.51-11.31A1.2,1.2,0,0,1,266.8,243.09Zm19.84,12.81a1.35,1.35,0,0,1,1.14.33l.31.24a1.38,1.38,0,0,1,.59,1,1.92,1.92,0,0,1-.48,1.23,1.36,1.36,0,0,1-2.15.35l-.32-.25a1.39,1.39,0,0,1-.6-1,1.74,1.74,0,0,1,.45-1.2A1.78,1.78,0,0,1,286.64,255.9Z"/><path class="cls-1" d="M265.2,272a9,9,0,0,1-5.33-2.83l-8.35-8.28a1.12,1.12,0,0,1-.36-.86,1.23,1.23,0,0,1,.35-.84,1.17,1.17,0,0,1,1.7,0l8.26,8.2a6.6,6.6,0,0,0,3.92,2,4.87,4.87,0,0,0,4-1.72,7.2,7.2,0,0,0,2-6.16,4.84,4.84,0,0,0-1.38-2.72l-8.27-8.2a1.16,1.16,0,0,1-.37-.84,1.15,1.15,0,0,1,.37-.85,1.17,1.17,0,0,1,.84-.38,1.15,1.15,0,0,1,.85.37l12.73,12.61a1.16,1.16,0,0,1,.37.85,1.19,1.19,0,0,1-.36.85,1.16,1.16,0,0,1-.85.37,1.19,1.19,0,0,1-.85-.36l-1.56-1.55a8.42,8.42,0,0,1-.15,4.21,8.32,8.32,0,0,1-2.11,3.75Q268,272.33,265.2,272Z"/><path class="cls-1" d="M248.82,297.91a1.21,1.21,0,0,1-.77-.51l-15.72-22.2a1.15,1.15,0,0,1,.29-1.67,1.14,1.14,0,0,1,.9-.22,1.16,1.16,0,0,1,.77.5l1.62,2.29a8.73,8.73,0,0,1,.63-4.27,7.89,7.89,0,0,1,2.84-3.58,8.63,8.63,0,0,1,4.7-1.63,9.54,9.54,0,0,1,5,1.17,12.6,12.6,0,0,1,6.31,8.91,9.71,9.71,0,0,1-.55,5.07,8.65,8.65,0,0,1-3.07,3.86,8.47,8.47,0,0,1-4.25,1.56,8,8,0,0,1-4.24-.74L250,296a1.17,1.17,0,0,1-.29,1.68A1.18,1.18,0,0,1,248.82,297.91Zm-10.77-24.65a7.25,7.25,0,0,0-.38,4,10.34,10.34,0,0,0,5,7,7.5,7.5,0,0,0,3.86,1,6.91,6.91,0,0,0,6.11-4.32,7.47,7.47,0,0,0,.38-4,9.61,9.61,0,0,0-1.71-4,9.71,9.71,0,0,0-3.26-3,7.51,7.51,0,0,0-3.87-1,6.93,6.93,0,0,0-6.11,4.3Z"/><path class="cls-1" d="M207.09,307.05a1.25,1.25,0,0,1-.62-.71l-6.22-16.89a1.16,1.16,0,0,1,.71-1.54,1.17,1.17,0,0,1,.92,0,1.15,1.15,0,0,1,.62.69l.92,2.51a8.31,8.31,0,0,1,1.77-3.88,8.06,8.06,0,0,1,3.66-2.67,8.63,8.63,0,0,1,5-.36,9.69,9.69,0,0,1,4.48,2.45,12.07,12.07,0,0,1,3,4.71,11.82,11.82,0,0,1,.72,5.56,9.53,9.53,0,0,1-1.86,4.71,8.92,8.92,0,0,1-8.51,3.35,7.66,7.66,0,0,1-3.87-1.82l.86,2.33a1.22,1.22,0,0,1,0,.94,1.11,1.11,0,0,1-.68.64A1.12,1.12,0,0,1,207.09,307.05Zm-.82-18a7.48,7.48,0,0,0-1.39,3.75,9.85,9.85,0,0,0,.62,4.39,9.54,9.54,0,0,0,2.35,3.66,7.46,7.46,0,0,0,3.48,1.93,6.58,6.58,0,0,0,3.89-.26,6.78,6.78,0,0,0,3.14-2.3,7.36,7.36,0,0,0,1.41-3.7,9.49,9.49,0,0,0-.61-4.36,10,10,0,0,0-2.36-3.75,7.19,7.19,0,0,0-3.47-2,7,7,0,0,0-7.06,2.6Z"/><path class="cls-1" d="M182.55,310.93a9,9,0,0,1-2.73-5.38L177.75,294a1.16,1.16,0,0,1,.2-.91,1.22,1.22,0,0,1,.77-.48,1.15,1.15,0,0,1,1.39,1l2,11.46a6.58,6.58,0,0,0,2,3.92,4.86,4.86,0,0,0,4.25.89,6.88,6.88,0,0,0,3.06-1.36,7,7,0,0,0,2.09-2.55,4.84,4.84,0,0,0,.43-3l-2-11.46a1.16,1.16,0,0,1,.19-.91,1.15,1.15,0,0,1,.78-.48,1.18,1.18,0,0,1,.91.18,1.22,1.22,0,0,1,.49.79l3.15,17.64a1.16,1.16,0,0,1-1,1.39,1.15,1.15,0,0,1-1.39-1l-.39-2.16a8.51,8.51,0,0,1-2.55,3.36,8.37,8.37,0,0,1-3.87,1.85C185.87,312.55,184,312.16,182.55,310.93Z"/><path class="cls-1" d="M154.59,322.78a1.16,1.16,0,0,1-.35-.86l-.44-27.19a1.15,1.15,0,0,1,1.18-1.22,1.14,1.14,0,0,1,.86.32,1.21,1.21,0,0,1,.36.86l0,2.8a8.66,8.66,0,0,1,2.93-3.17,8,8,0,0,1,4.36-1.35,8.67,8.67,0,0,1,4.8,1.3,9.59,9.59,0,0,1,3.44,3.77A12.65,12.65,0,0,1,172,309a9.59,9.59,0,0,1-3.32,3.87,8.59,8.59,0,0,1-4.71,1.46,8.5,8.5,0,0,1-4.38-1.11,8.06,8.06,0,0,1-3.09-3l.19,11.71a1.17,1.17,0,0,1-.33.87,1.14,1.14,0,0,1-.85.35A1.16,1.16,0,0,1,154.59,322.78Zm5-26.43a7.37,7.37,0,0,0-2.55,3.07,10,10,0,0,0-.87,4.35,9.76,9.76,0,0,0,1,4.26,7.46,7.46,0,0,0,2.65,3,6.91,6.91,0,0,0,7.48-.12,7.38,7.38,0,0,0,2.55-3.06,10.31,10.31,0,0,0-.14-8.6,7.45,7.45,0,0,0-2.65-3,6.65,6.65,0,0,0-3.75-1A6.86,6.86,0,0,0,159.6,296.35Z"/><path class="cls-1" d="M112.53,315.08a1.17,1.17,0,0,1-.11-.92l7-26.3a1.21,1.21,0,0,1,2.21-.3,1.13,1.13,0,0,1,.11.92l-.71,2.7a8.62,8.62,0,0,1,3.68-2.25,7.86,7.86,0,0,1,4.56-.12,8.63,8.63,0,0,1,4.27,2.56,9.69,9.69,0,0,1,2.29,4.55A12.63,12.63,0,0,1,133,306.48a9.61,9.61,0,0,1-4.25,2.83,8.77,8.77,0,0,1-8.85-2.13,8,8,0,0,1-2.15-3.74l-3,11.33a1.21,1.21,0,0,1-2.21.31Zm12-24.08a7.43,7.43,0,0,0-3.29,2.26,9.93,9.93,0,0,0-2,3.95,9.5,9.5,0,0,0-.19,4.38,7.51,7.51,0,0,0,1.74,3.59,6.91,6.91,0,0,0,7.24,1.91,7.51,7.51,0,0,0,3.28-2.26,9.54,9.54,0,0,0,2-3.89,9.68,9.68,0,0,0,.2-4.42,7.56,7.56,0,0,0-1.74-3.59,7,7,0,0,0-7.23-1.93Z"/><path class="cls-1" d="M94.33,287.16a1.13,1.13,0,0,1,.9,0L109,293.52a9.27,9.27,0,0,0,.91-4.32,7.49,7.49,0,0,0-1.29-3.89,8.15,8.15,0,0,0-3.45-2.8,7.32,7.32,0,0,0-3.46-.71,7.14,7.14,0,0,0-3.07.83,1.33,1.33,0,0,1-.91,0,1.1,1.1,0,0,1-.51-1.38,1.17,1.17,0,0,1,.71-.6,10.12,10.12,0,0,1,4-1,8.92,8.92,0,0,1,4.14.81,11,11,0,0,1,4.39,3.47,9.41,9.41,0,0,1,1.8,4.9,11.22,11.22,0,0,1-1.1,5.55,12.18,12.18,0,0,1-3.58,4.67,9.35,9.35,0,0,1-4.72,2,8.73,8.73,0,0,1-4.72-.74,9.5,9.5,0,0,1-3.62-2.9A8.86,8.86,0,0,1,92.75,293a10,10,0,0,1,.91-5.22A1.06,1.06,0,0,1,94.33,287.16Zm9.32,11.35a7.34,7.34,0,0,0,4.23-3.11l-12.39-5.7-.13.29a6.32,6.32,0,0,0-.22,3.35,6.51,6.51,0,0,0,1.41,2.9,7.4,7.4,0,0,0,2.53,1.93A6.65,6.65,0,0,0,103.65,298.51Z"/><path class="cls-1" d="M69.66,283.1a.87.87,0,0,1,.11-.8,1.47,1.47,0,0,1,.51-.48l16.77-10.9a1.41,1.41,0,0,1,.68-.19,1,1,0,0,1,.64.16,1.11,1.11,0,0,1,.5.53,1.18,1.18,0,0,1,.07.77l-3.72,19.67a.59.59,0,0,0-.08.23,1,1,0,0,1-.13.3,1.18,1.18,0,0,1-.72.5,1.23,1.23,0,0,1-1-.23,1.05,1.05,0,0,1-.42-.55,1.32,1.32,0,0,1-.06-.74l3.39-17.24-14.71,9.64a1.44,1.44,0,0,1-.71.22,1,1,0,0,1-.68-.24A1.28,1.28,0,0,1,69.66,283.1Z"/><path class="cls-1" d="M61.55,254.66a9.77,9.77,0,0,1,5.27-.28,10.37,10.37,0,0,1,7.51,7.08,9.76,9.76,0,0,1,0,5.28,11.05,11.05,0,0,1-2.77,4.86,11.18,11.18,0,0,1-4.69,3.06,10,10,0,0,1-5.28.29,10.19,10.19,0,0,1-7.51-7.08,9.9,9.9,0,0,1,0-5.29,11.9,11.9,0,0,1,7.46-7.92Zm-5.18,8.53a7.56,7.56,0,0,0,0,4.11,7.36,7.36,0,0,0,2.11,3.5A7.23,7.23,0,0,0,62,272.69a7.85,7.85,0,0,0,4.09-.29A9.2,9.2,0,0,0,69.84,270,9,9,0,0,0,72,266.14a7.72,7.72,0,0,0,0-4.1,7.23,7.23,0,0,0-2.1-3.49,7.41,7.41,0,0,0-7.68-1.64,9.75,9.75,0,0,0-5.93,6.28Z"/><path class="cls-1" d="M44.32,254.65l10.46-8.39A2.79,2.79,0,0,0,56,244.54a2,2,0,0,0-.5-1.49,2.15,2.15,0,0,0-.46-.41,2.08,2.08,0,0,1-.42-.37.84.84,0,0,1-.16-.68,1,1,0,0,1,1.52-.72,3,3,0,0,1,1.25.94,8.3,8.3,0,0,1,1,1.63,3,3,0,0,1,.08,2,5.31,5.31,0,0,1-2,2.61l-10.55,8.46,1.83,2.28a1.13,1.13,0,0,1,.26.84,1,1,0,0,1-.41.76,1.08,1.08,0,0,1-.84.24,1.19,1.19,0,0,1-.76-.44l-1.83-2.28-3.46,2.78a1.2,1.2,0,1,1-1.5-1.88l3.46-2.77-2.5-3.12a1.09,1.09,0,0,1-.21-.84,1.16,1.16,0,0,1,.42-.76,1,1,0,0,1,.8-.24,1.13,1.13,0,0,1,.74.44Z"/><path class="cls-1" d="M35,227a1.22,1.22,0,0,1,.73.54L43.5,240.5a9.14,9.14,0,0,0,3.17-3.06,7.36,7.36,0,0,0,1.12-3.95,8.21,8.21,0,0,0-1.28-4.25A7.4,7.4,0,0,0,44,226.71a7.12,7.12,0,0,0-3-1,1.38,1.38,0,0,1-.74-.53,1,1,0,0,1-.1-.78,1,1,0,0,1,.45-.65,1.2,1.2,0,0,1,.93-.09,10.09,10.09,0,0,1,3.86,1.43,8.76,8.76,0,0,1,3,3,10.9,10.9,0,0,1,1.69,5.34,9.37,9.37,0,0,1-1.26,5.06,11.23,11.23,0,0,1-4,4,12,12,0,0,1-5.58,1.85,9.38,9.38,0,0,1-5-1A8.74,8.74,0,0,1,30.72,240a9.32,9.32,0,0,1-1.37-4.43,8.87,8.87,0,0,1,1-4.62,9.91,9.91,0,0,1,3.68-3.81A1.07,1.07,0,0,1,35,227Zm1.35,14.64a7.43,7.43,0,0,0,5.25-.21l-7.06-11.67-.27.16a6.35,6.35,0,0,0-2.07,2.65,6.51,6.51,0,0,0-.45,3.2,7.3,7.3,0,0,0,1,3A6.69,6.69,0,0,0,36.3,241.66Z"/><path class="cls-1" d="M8.2,211.42a1.21,1.21,0,0,1,.68-.63l25.35-9.87a1.13,1.13,0,0,1,.92,0,1.15,1.15,0,0,1,.63.68,1.15,1.15,0,0,1-.68,1.55l-2.61,1a8.58,8.58,0,0,1,4,1.65,7.9,7.9,0,0,1,2.78,3.61,8.63,8.63,0,0,1,.45,5,9.66,9.66,0,0,1-2.33,4.53,12,12,0,0,1-4.66,3.15,11.9,11.9,0,0,1-5.52.82,9.64,9.64,0,0,1-4.79-1.77,8.57,8.57,0,0,1-3-3.91,8.44,8.44,0,0,1-.48-4.49,8.13,8.13,0,0,1,1.74-3.95L9.75,213a1.22,1.22,0,0,1-1.55-1.61Zm26.52-4.49A7.33,7.33,0,0,0,31,205.6a9.9,9.9,0,0,0-4.39.7,9.59,9.59,0,0,0-3.65,2.43,7.51,7.51,0,0,0-1.87,3.52,6.89,6.89,0,0,0,2.72,7,7.39,7.39,0,0,0,3.75,1.32,9.46,9.46,0,0,0,4.33-.67,9.75,9.75,0,0,0,3.69-2.45,7.48,7.48,0,0,0,1.87-3.51,6.94,6.94,0,0,0-2.7-7Z"/><path class="cls-1" d="M10.6,171.54a9.21,9.21,0,0,1,3.34-3.76A11.48,11.48,0,0,1,19.11,166a11.65,11.65,0,0,1,5.48.63,9.39,9.39,0,0,1,4.08,2.94,8.7,8.7,0,0,1,1.87,4.61,8.43,8.43,0,0,1-.64,4.35,8.57,8.57,0,0,1-2.59,3.4l10.5-1.13a1.15,1.15,0,0,1,.89.24,1.13,1.13,0,0,1,.43.82,1.16,1.16,0,0,1-.24.89,1.19,1.19,0,0,1-.82.43L12.14,186a1.22,1.22,0,0,1-.91-.24,1.15,1.15,0,0,1-.45-.81,1.11,1.11,0,0,1,.27-.9,1.23,1.23,0,0,1,.83-.43l2.71-.29a7.56,7.56,0,0,1-3.27-2.67,9.2,9.2,0,0,1-.72-9.09Zm16.28-.5a7.3,7.3,0,0,0-3.2-2.27,9.45,9.45,0,0,0-4.32-.47,9,9,0,0,0-4,1.38,7.31,7.31,0,0,0-2.63,2.9,6.82,6.82,0,0,0-.65,3.83,7.13,7.13,0,0,0,1.44,3.67,7,7,0,0,0,3.17,2.27,9.32,9.32,0,0,0,4.29.46,9.45,9.45,0,0,0,4.12-1.37,7,7,0,0,0,3.29-6.79A6.86,6.86,0,0,0,26.88,171Z"/><path class="cls-1" d="M29.27,157.66a1.24,1.24,0,0,1,0,1.72,1.15,1.15,0,0,1-.86.32l-27.2-.44a1.12,1.12,0,0,1-.85-.35A1.13,1.13,0,0,1,0,158a1.18,1.18,0,0,1,.35-.85,1.17,1.17,0,0,1,.87-.33l27.2.44A1.19,1.19,0,0,1,29.27,157.66Z"/><path class="cls-1" d="M12.19,130.68a1.29,1.29,0,0,1,.92-.22L30.94,133a1.2,1.2,0,1,1-.34,2.38L28,135a8.41,8.41,0,0,1,2.59,3.4,8.13,8.13,0,0,1,.62,4.49,8.56,8.56,0,0,1-2.06,4.58,9.6,9.6,0,0,1-4.27,2.79,11.94,11.94,0,0,1-5.59.44,11.69,11.69,0,0,1-5.24-2,9.49,9.49,0,0,1-3.27-3.87,8.9,8.9,0,0,1,1.08-9.08,7.59,7.59,0,0,1,3.42-2.54l-2.45-.35a1.26,1.26,0,0,1-.83-.46,1.15,1.15,0,0,1-.23-.9A1.16,1.16,0,0,1,12.19,130.68Zm16.22,7.77a7.52,7.52,0,0,0-2.65-3,9.76,9.76,0,0,0-4.17-1.53,9.49,9.49,0,0,0-4.33.34,7.5,7.5,0,0,0-3.35,2.15A6.63,6.63,0,0,0,12.3,140a6.74,6.74,0,0,0,.55,3.86,7.41,7.41,0,0,0,2.59,3,9.71,9.71,0,0,0,4.12,1.53A10,10,0,0,0,24,148a7.34,7.34,0,0,0,3.37-2.13,7,7,0,0,0,1.05-7.45Z"/><path class="cls-1" d="M20.38,107.21a8.9,8.9,0,0,1,6,.14L37.59,111a1.11,1.11,0,0,1,.71.61,1.18,1.18,0,0,1,.06.9,1.17,1.17,0,0,1-1.51.77l-11.07-3.61a6.5,6.5,0,0,0-4.41-.08,4.84,4.84,0,0,0-2.79,3.32,7.18,7.18,0,0,0,1,6.39A4.9,4.9,0,0,0,22,121.11l11.07,3.61a1.17,1.17,0,0,1,.71.59A1.2,1.2,0,0,1,32.36,127l-17-5.56a1.14,1.14,0,0,1-.71-.59,1.13,1.13,0,0,1-.06-.92,1.17,1.17,0,0,1,.59-.71,1.13,1.13,0,0,1,.92-.06l2.1.68A8.37,8.37,0,0,1,16.41,116a8.25,8.25,0,0,1,.2-4.29Q17.77,108.18,20.38,107.21Z"/><path class="cls-1" d="M26.82,94.24l12,5.87a2.81,2.81,0,0,0,2.09.4,2,2,0,0,0,1.14-1.09,2.13,2.13,0,0,0,.17-.58,2.33,2.33,0,0,1,.16-.55.77.77,0,0,1,.54-.43,1,1,0,0,1,.74.08,1.08,1.08,0,0,1,.57,1,2.93,2.93,0,0,1-.33,1.54,7.86,7.86,0,0,1-1,1.63,3,3,0,0,1-1.79.93,5.14,5.14,0,0,1-3.22-.7L25.77,96.4,24.49,99a1.13,1.13,0,0,1-.65.6,1.12,1.12,0,0,1-1.43-.7,1.13,1.13,0,0,1,.07-.88l1.28-2.63-4-1.94a1.2,1.2,0,0,1-.63-.68,1.17,1.17,0,0,1,.08-.93,1.12,1.12,0,0,1,.68-.62,1.15,1.15,0,0,1,.92.07l4,2,1.75-3.6a1.06,1.06,0,0,1,.67-.54,1.18,1.18,0,0,1,.87,0,1.05,1.05,0,0,1,.56.63,1.15,1.15,0,0,1-.08.85Z"/><path class="cls-1" d="M54.84,82.15a1.2,1.2,0,0,1-.23.9,1.19,1.19,0,0,1-1.68.27l-22-15.92a1.12,1.12,0,0,1-.5-.78,1.23,1.23,0,0,1,1-1.39,1.14,1.14,0,0,1,.9.22L54.34,81.37A1.19,1.19,0,0,1,54.84,82.15Z"/><path class="cls-1" d="M67.24,60.86A10,10,0,0,1,55.3,73.79a11.86,11.86,0,0,1-8-7.38A9.91,9.91,0,0,1,47,61.13a10,10,0,0,1,12.29-7.65,11.86,11.86,0,0,1,8,7.38Zm-8.58-5.09a7.61,7.61,0,0,0-4.1,0,7.28,7.28,0,0,0-3.48,2.15,7.15,7.15,0,0,0-1.85,3.62,7.79,7.79,0,0,0,.33,4.1,9.54,9.54,0,0,0,6.32,5.83,7.81,7.81,0,0,0,4.1,0,7.28,7.28,0,0,0,3.47-2.14,7.4,7.4,0,0,0,1.88-3.62A7.51,7.51,0,0,0,65,61.63a9.76,9.76,0,0,0-6.35-5.86Z"/><path class="cls-1" d="M75.26,34.14a.87.87,0,0,1,.72.35,1.51,1.51,0,0,1,.29.63l5.1,19.34a1.43,1.43,0,0,1,0,.71,1.1,1.1,0,0,1-.35.56,1.12,1.12,0,0,1-.67.31,1.16,1.16,0,0,1-.75-.18L62.06,46.17a.77.77,0,0,0-.2-.15,1,1,0,0,1-.24-.22,1.12,1.12,0,0,1-.25-.84,1.22,1.22,0,0,1,.52-.84,1.16,1.16,0,0,1,.65-.23,1.43,1.43,0,0,1,.72.18l15.31,8.62L74,35.7A1.43,1.43,0,0,1,74,35a1,1,0,0,1,.44-.57A1.2,1.2,0,0,1,75.26,34.14Z"/><path class="cls-1" d="M101.43,30.55a1.15,1.15,0,0,1-.57.7L87.59,38.51a9.28,9.28,0,0,0,2.93,3.31,7.45,7.45,0,0,0,3.9,1.28,8.12,8.12,0,0,0,4.3-1.1,7.25,7.25,0,0,0,2.63-2.35,7.13,7.13,0,0,0,1.16-3,1.33,1.33,0,0,1,.56-.72,1,1,0,0,1,.79-.07,1,1,0,0,1,.62.48,1.17,1.17,0,0,1,.06.93,10,10,0,0,1-1.6,3.79A8.85,8.85,0,0,1,99.83,44a11,11,0,0,1-5.41,1.45,9.28,9.28,0,0,1-5-1.48,11,11,0,0,1-3.8-4.19A12.11,12.11,0,0,1,84,34.08a9.31,9.31,0,0,1,1.23-5,8.71,8.71,0,0,1,3.41-3.35,9.31,9.31,0,0,1,4.48-1.18,8.83,8.83,0,0,1,4.58,1.23,9.89,9.89,0,0,1,3.65,3.84A1.07,1.07,0,0,1,101.43,30.55Zm-14.68.72a7.45,7.45,0,0,0,0,5.25L98.7,30l-.16-.28A6.29,6.29,0,0,0,96,27.51a6.54,6.54,0,0,0-3.17-.58,7.31,7.31,0,0,0-3.06.87A6.74,6.74,0,0,0,86.75,31.27Z"/><path class="cls-1" d="M114.38,14.8a1,1,0,0,1,.94.67,1.28,1.28,0,0,1,0,1,1,1,0,0,1-.59.59,3.42,3.42,0,0,1-.8.08,3.65,3.65,0,0,0-1.1.2,4.76,4.76,0,0,0-2.35,2.11A8.84,8.84,0,0,0,109.28,23a7.87,7.87,0,0,0,.4,3.74L113.16,36a1.13,1.13,0,0,1,0,.92,1.16,1.16,0,0,1-.68.62,1.13,1.13,0,0,1-.92,0,1.17,1.17,0,0,1-.63-.69L104.6,20.06a1.18,1.18,0,0,1,.7-1.55,1.2,1.2,0,0,1,.93,0,1.15,1.15,0,0,1,.62.69l1.24,3.29A9.2,9.2,0,0,1,109.36,18a7,7,0,0,1,3.56-3A3.13,3.13,0,0,1,114.38,14.8Z"/><path class="cls-1" d="M136.16,30a1.69,1.69,0,0,1-.57-1.05l-.15-.83a1.57,1.57,0,0,1,.14-1.16,1.31,1.31,0,0,1,.95-.59l.27-.05a1.34,1.34,0,0,1,1.1.19,1.62,1.62,0,0,1,.56,1l.16.82a1.72,1.72,0,0,1-.14,1.19,1.31,1.31,0,0,1-.94.61l-.28.05A1.31,1.31,0,0,1,136.16,30Z"/></g></g></svg>
