<svg width="512" height="512" viewBox="0 0 512 512" fill="none" xmlns="http://www.w3.org/2000/svg">
<path d="M423 413V290.672C423 230.552 410.057 184.627 339.917 184.627C306.1 184.627 283.555 202.997 274.37 220.532H273.535V190.055H207.152V413H276.457V302.362C276.457 273.137 281.885 245.165 317.79 245.165C353.277 245.165 353.695 278.147 353.695 304.032V412.582H423V413Z" fill="black"/>
<path d="M94.4275 190.055H163.732V413H94.4275V190.055Z" fill="black"/>
<path d="M129.08 79C106.953 79 89 96.9525 89 119.08C89 141.208 106.953 159.578 129.08 159.578C151.208 159.578 169.16 141.208 169.16 119.08C169.16 96.9525 151.208 79 129.08 79V79Z" fill="black"/>
</svg>
