<svg width="403" height="399" viewBox="0 0 403 399" fill="none" xmlns="http://www.w3.org/2000/svg">
<path d="M200.837 225.625C214.007 225.625 224.684 214.992 224.684 201.875C224.684 188.758 214.007 178.125 200.837 178.125C187.668 178.125 176.991 188.758 176.991 201.875C176.991 214.992 187.668 225.625 200.837 225.625Z" fill="white" stroke="#FFF5F5" stroke-miterlimit="10"/>
<path d="M203.487 159.653C190.239 159.653 186.795 60.1668 192.889 27.7085C194.479 19.5279 198.188 1.31958 214.086 1.31958C229.983 1.31958 232.103 19.7918 232.633 27.7085C235.282 61.4862 216.735 159.653 203.487 159.653Z" fill="#FFCCCC" stroke="white" stroke-miterlimit="10"/>
<path d="M226.008 164.667C214.085 159.125 253.564 67.5557 272.906 40.903C277.94 34.0419 289.068 19.2641 303.376 26.1252C317.684 32.9863 311.59 50.403 308.94 57.7919C296.752 89.1946 237.932 170.209 226.008 164.667Z" fill="#FFCCCC" stroke="white" stroke-miterlimit="10"/>
<path d="M238.196 182.083C230.248 171.528 308.41 109.514 338.085 94.7359C345.769 91.0415 362.461 83.1248 372 96.0554C381.538 108.986 367.76 121.389 361.931 126.666C336.495 148.833 246.145 192.639 238.196 182.083Z" fill="#FFCCCC" stroke="white" stroke-miterlimit="10"/>
<path d="M242.966 202.931C240.581 190 338.35 168.889 371.47 168.889C379.949 168.889 398.496 169.417 401.41 184.986C404.325 200.556 386.573 205.833 378.624 207.944C345.769 216.653 245.35 215.861 242.966 202.931Z" fill="#FFCCCC" stroke="white" stroke-miterlimit="10"/>
<path d="M180.966 163.084C169.043 168.889 122.145 81.278 113.137 49.3474C110.752 41.1669 106.248 23.2224 120.556 16.3613C134.863 9.50018 144.667 25.0696 148.906 31.9307C166.128 60.6946 192.889 157.014 180.966 163.084Z" fill="#FFCCCC" stroke="white" stroke-miterlimit="10"/>
<path d="M163.479 173.639C156.59 184.986 69.9486 135.639 45.3076 113.472C38.9486 107.931 25.4358 95.2638 33.9144 81.5416C42.3931 67.8194 59.0854 76 66.2392 79.6944C96.4443 95 170.632 162.292 163.479 173.639Z" fill="#FFCCCC" stroke="white" stroke-miterlimit="10"/>
<path d="M192.094 241.722C205.077 243.833 191.829 342.528 180.436 373.667C177.521 381.583 170.897 398.736 155 396.097C139.368 393.458 140.427 374.986 141.222 367.069C144.137 333.292 179.111 239.347 192.094 241.722Z" fill="#FFCCCC" stroke="white" stroke-miterlimit="10"/>
<path d="M170.897 233.014C181.761 240.667 127.444 324.056 103.863 347.278C97.7692 353.347 84.2564 366.014 71.2735 356.778C58.2906 347.806 67.0342 331.445 71.2735 324.583C88.2308 295.556 160.034 225.625 170.897 233.014Z" fill="#FFCCCC" stroke="white" stroke-miterlimit="10"/>
<path d="M161.624 213.75C167.718 225.625 80.2821 273.653 48.4872 283.153C40.2735 285.528 22.5214 290.542 15.3675 276.292C8.21369 262.042 23.5812 252.014 30.4701 247.792C59.3504 230.111 155.53 202.139 161.624 213.75Z" fill="#FFCCCC" stroke="white" stroke-miterlimit="10"/>
<path d="M160.299 192.375C160.564 205.569 60.6754 210.055 27.8207 204.514C19.3421 203.194 1.32496 199.5 1.06 183.667C0.795042 167.833 19.3421 165.722 27.2908 164.931C61.4703 161.764 160.299 179.181 160.299 192.375Z" fill="#FFCCCC" stroke="white" stroke-miterlimit="10"/>
<path d="M214.88 242.25C227.598 238.555 259.128 332.764 262.837 365.75C263.632 374.194 265.222 392.666 250.12 397.152C234.752 401.639 227.598 384.486 224.684 377.097C212.231 345.43 202.162 245.944 214.88 242.25Z" fill="#FFCCCC" stroke="white" stroke-miterlimit="10"/>
<path d="M229.983 234.07C238.461 224.042 316.889 285.528 338.085 311.125C343.384 317.723 354.778 332.236 344.709 344.375C334.376 356.514 319.008 346.222 312.384 341.472C284.564 321.945 221.504 244.098 229.983 234.07Z" fill="#FFCCCC" stroke="white" stroke-miterlimit="10"/>
<path d="M246.94 224.042C249.855 211.111 347.889 229.847 378.359 243.042C386.043 246.472 403 254.125 399.556 269.431C396.111 284.736 377.564 282.625 369.615 281.57C335.966 276.82 244.026 236.972 246.94 224.042Z" fill="#FFCCCC" stroke="white" stroke-miterlimit="10"/>
</svg>
